<?xml version="1.0" encoding="iso-8859-1"?>
<svg xmlns="http://www.w3.org/2000/svg" xmlns:xlink="http://www.w3.org/1999/xlink" version="1.1" id="Layer_1" x="0px" y="0px" viewBox="0 0 512 512" style="enable-background:new 0 0 512 512;" xml:space="preserve" width="512px" height="512px">
<g>
	<g>
		<g>
			<path d="M489.171,2.484c-10.313-4.586-21.927-2.735-30.304,4.825l-17.231,15.548C368.83,88.553,274.727,124.734,176.663,124.734     H86.137c-26.77,0-48.547,21.779-48.547,48.547v7.929H26.81c-11.416,0-20.704,9.288-20.704,20.705v63.645     c0,11.416,9.287,20.705,20.704,20.705h10.779v7.928c0,26.77,21.778,48.548,48.547,48.548h33.548v140.052     c0,16.104,13.102,29.207,29.207,29.207h55.548c16.104,0,29.207-13.102,29.207-29.207v-68.762     c30.26-3.018,56.163-23.027,66.71-51.486c51.834,17.055,99.985,44.81,141.28,82.071l17.231,15.548     c5.331,4.811,11.971,7.31,18.753,7.31c3.876,0,7.801-0.816,11.551-2.484c10.315-4.585,16.722-14.446,16.722-25.733V28.218     C505.893,16.93,499.486,7.069,489.171,2.484z M37.589,270.318H26.81c-2.624,0-4.758-2.135-4.758-4.759v-63.645     c0-2.624,2.135-4.759,4.758-4.759h10.779V270.318z M86.137,326.794c-17.976,0-32.601-14.625-32.601-32.603v-120.91     c0-17.977,14.625-32.601,32.601-32.601h82.554v186.114H86.137z M217.7,482.793c0,7.312-5.949,13.262-13.262,13.262H148.89     c-7.313,0-13.261-5.949-13.261-13.262V342.74h41.035c13.775,0,27.466,0.74,41.037,2.148V482.793z M233.646,397.999v-51.133     c17.425,2.528,34.61,6.196,51.445,10.99C276.649,379.662,256.861,395.095,233.646,397.999z M489.947,439.256     c0,4.971-2.712,9.143-7.253,11.163c-4.54,2.018-9.456,1.236-13.145-2.093l-17.231-15.548     c-73.766-66.562-168.547-103.983-267.682-105.891V140.588c99.135-1.908,193.917-39.329,267.682-105.891l17.231-15.549     c3.69-3.328,8.602-4.112,13.145-2.093c4.541,2.019,7.253,6.192,7.253,11.162V439.256z" fill="#CAE0DE"/>
			<path d="M268.786,248.042h-43.113c-4.404,0-7.973,3.57-7.973,7.973s3.569,7.973,7.973,7.973h43.113     c4.404,0,7.973-3.57,7.973-7.973S273.189,248.042,268.786,248.042z" fill="#CAE0DE"/>
			<path d="M311.9,203.487h-86.227c-4.404,0-7.973,3.57-7.973,7.973s3.569,7.973,7.973,7.973H311.9c4.404,0,7.973-3.57,7.973-7.973     S316.304,203.487,311.9,203.487z" fill="#CAE0DE"/>
		</g>
	</g>
</g>
<g>
</g>
<g>
</g>
<g>
</g>
<g>
</g>
<g>
</g>
<g>
</g>
<g>
</g>
<g>
</g>
<g>
</g>
<g>
</g>
<g>
</g>
<g>
</g>
<g>
</g>
<g>
</g>
<g>
</g>
</svg>
