<?xml version="1.0" encoding="UTF-8"?>
<!DOCTYPE svg PUBLIC "-//W3C//DTD SVG 1.1//EN" "http://www.w3.org/Graphics/SVG/1.1/DTD/svg11.dtd">
<svg xmlns="http://www.w3.org/2000/svg" xml:space="preserve" width="1.87943in" height="0.312957in" version="1.1" shape-rendering="geometricPrecision" text-rendering="geometricPrecision" image-rendering="optimizeQuality" fill-rule="evenodd" clip-rule="evenodd"
viewBox="0 0 204397 34036"
 xmlns:xlink="http://www.w3.org/1999/xlink">
 <g id="Layer_x0020_1"> 
  <path fill="#4B616C" fill-rule="nonzero" d="M39849 32999l3814 0 0 -22942 14925 22942 3772 0 0 -30015 -3772 0 0 23003 -14885 -23003 -3854 0 0 30015z"/>
  <path id="1" fill="#4B616C" fill-rule="nonzero" d="M67650 27709c0,4886 3245,5556 5945,5406 0,0 11980,-608 12615,-697l0 -2980 -12246 0c-1189,0 -2508,41 -2542,-2139l0 -7258 13087 -369 0 -3034 -13087 -451 0 -7223c0,-1108 0,-2297 2132,-2297l12656 0 0 -3020c-724,-103 -13025,-656 -13025,-656 -2775,-109 -5535,1230 -5535,5569l0 19149z"/>
  <path id="2" fill="#4B616C" fill-rule="nonzero" d="M89566 6633l8590 0 0 26366 3772 0 0 -26366 8837 0 0 -3649 -21199 0 0 3649z"/>
  <path id="3" fill="#4B616C" fill-rule="nonzero" d="M115747 32999l1681 0 0 -13983 14310 -287 0 -1189 -14310 -287 0 -8939c0,-2419 1066,-3649 3485,-3649l12465 0 0 -1189 -12465 -492c-2665,-82 -5166,1312 -5166,5330l0 24685z"/>
  <path id="4" fill="#4B616C" fill-rule="nonzero" d="M138381 32999l1681 0 0 -13367c123,81 7914,409 9349,450l6561 12917 1763 0 -6479 -12958c2337,-123 6069,-820 6069,-8569 0,-7176 -3691,-8488 -7135,-8488l-11809 0 0 30015zm1681 -14680l0 -13613 10128 0c2665,0 5412,779 5412,6766 0,6232 -2624,6847 -5412,6847l-10128 0z"/>
  <path id="5" fill="#4B616C" fill-rule="nonzero" d="M163147 27955c0,4633 2871,5290 5577,5166l12055 -491 0 -1189 -12055 0c-1886,0 -3896,-247 -3896,-3486l0 -8939 14310 -287 0 -1189 -14310 -287 0 -8939c0,-2419 1066,-3649 3486,-3649l12465 0 0 -1189 -12465 -492c-2665,-82 -5167,1312 -5167,5330l0 19641z"/>
  <path id="6" fill="#4B616C" fill-rule="nonzero" d="M186765 27955c0,4633 2871,5290 5577,5166l12055 -491 0 -1189 -12055 0c-1886,0 -3896,-247 -3896,-3486l0 -8939 14311 -287 0 -1189 -14311 -287 0 -8939c0,-2419 1067,-3649 3486,-3649l12465 0 0 -1189 -12465 -492c-2665,-82 -5167,1312 -5167,5330l0 19641z"/>
  <path fill="#4B616C" d="M2554 6943c-299,4028 -305,12118 4082,18859 2290,-3255 4973,-5737 7797,-7553l-105 -486c-726,-3372 -2504,-5752 -4617,-7429 -2272,-1804 -4945,-2820 -7157,-3391z"/>
  <path fill="#4B616C" d="M30365 15564c-1058,6614 -4401,14449 -13850,18470l0 0 -1 0 -2 2 0 -3c-4230,-1801 -6927,-4158 -9052,-7036 3031,-4197 4848,-5931 8752,-8407 3731,-2218 7252,-3047 10226,-3199 1451,-75 2773,10 3927,173z"/>
  <path fill="#4B616C" d="M30602 4384c-19,254 503,3239 315,7299 -1303,-638 -2692,-1129 -4087,-1447 -1759,-401 -3527,-526 -5149,-323 -1270,159 -2461,517 -3507,1097 -2862,-4756 -6463,-6849 -9847,-7603 -295,-66 -588,-122 -879,-168 5593,-1549 9194,-3227 9217,-3238l0 -1c0,0 5708,2665 13937,4384z"/>
  <path fill="#71858F" d="M26553 11470c2610,595 5204,1849 7206,3555 -3303,-1020 -10328,-2200 -18192,2475 -2029,-9414 -11500,-11775 -15567,-12358 3579,-1158 12068,-2591 17499,7232l243 441 409 -293c2136,-1532 5275,-1765 8402,-1052z"/>
 </g>
</svg>
