<?xml version="1.0" encoding="UTF-8"?>
<!DOCTYPE svg PUBLIC "-//W3C//DTD SVG 1.1//EN" "http://www.w3.org/Graphics/SVG/1.1/DTD/svg11.dtd">
<!-- Creator: CorelDRAW X7 -->
<svg xmlns="http://www.w3.org/2000/svg" xml:space="preserve" width="5.42085in" height="5.5in" version="1.1" shape-rendering="geometricPrecision" text-rendering="geometricPrecision" image-rendering="optimizeQuality" fill-rule="evenodd" clip-rule="evenodd"
viewBox="0 0 542087 550003"
 xmlns:xlink="http://www.w3.org/1999/xlink">
 <g id="Layer_x0020_1">
  <metadata id="CorelCorpID_0Corel-Layer"/>
  <g id="_236297488">
   <g id="settings">
    <path fill="none" stroke="#CAE0DE" stroke-width="16666.6" d="M467673 303141c0,-8040 2680,-16080 2680,-26801 0,-10720 0,-18760 -2680,-26801l56282 -45561c5360,-5360 5360,-10720 2680,-16080l-53602 -93803c-2680,-2680 -8039,-5360 -16080,-2680l-67002 26801c-13401,-10720 -29481,-18760 -45561,-26801l-10720 -69681c2679,-8041 -5361,-13401 -10721,-13401l-107203 0c-5361,0 -13400,5360 -13400,10720l-10720 72362c-16081,5361 -29481,16081 -45562,26801l-64322 -26801c-8040,-2680 -13400,0 -18761,5361l-53601 93802c-2680,2680 0,10720 5360,16080l56281 42882c0,8040 -2680,16080 -2680,26801 0,10720 0,18760 2680,26800l-56281 45562c-5360,5361 -5360,10720 -2680,16081l53601 93803c2680,2680 8039,5360 16081,2680l67002 -26801c13400,10720 29480,18760 45561,26801l10720 69681c0,5361 5360,10721 13400,10721l107203 0c5361,0 13401,-5361 13401,-10720l10720 -69682c16080,-8040 32161,-16080 45561,-26801l67002 26801c5361,2680 13400,0 16081,-5361l53602 -93802c2680,-5361 2680,-13401 -2681,-16081l-61641 -42882zm-198325 67002c-50922,0 -93803,-42881 -93803,-93802 0,-50922 42882,-93803 93803,-93803 50921,0 93802,42881 93802,93803 0,50921 -42881,93802 -93802,93802z"/>
   </g>
  </g>
 </g>
</svg>
